<svg xmlns="http://www.w3.org/2000/svg" width="32" height="32" viewBox="0 0 32 32"><rect width="32" height="32" rx="6" fill="#18251D" /><g transform="translate(5.56 4) scale(.03395) translate(-327 -241)" fill="#B8EA8D"><path d="M477 241 C484 241 490 245 496 252 L610 389 C616 396 612 408 601 408 H557 C548 408 543 413 543 422 V917 C543 936 532 948 512 948 H437 C417 948 406 936 406 917 V422 C406 413 402 408 392 408 H341 C329 408 323 398 331 388 L460 250 C465 244 470 241 477 241 Z" /><path d="M584 306 H737 C852 306 942 402 942 538 C942 669 845 773 713 773 H583 C574 773 568 767 568 758 V681 C568 672 574 665 584 665 H681 C760 665 816 612 816 536 C816 462 760 408 680 408 H656 C650 408 646 406 642 401 L577 321 C571 314 575 306 584 306 Z" /></g></svg>